<?xml version="1.0" encoding="UTF-8" standalone="no"?>
<!-- Created with Inkscape (http://www.inkscape.org/) -->

<svg
   version="1.1"
   id="svg1"
   width="204.8"
   height="204.8"
   viewBox="0 0 204.8 204.8"
   sodipodi:docname="app.m0rf30.cieid.svg"
   inkscape:version="1.4 (e7c3feb100, 2024-10-09)"
   xmlns:inkscape="http://www.inkscape.org/namespaces/inkscape"
   xmlns:sodipodi="http://sodipodi.sourceforge.net/DTD/sodipodi-0.dtd"
   xmlns="http://www.w3.org/2000/svg"
   xmlns:svg="http://www.w3.org/2000/svg">
  <defs
     id="defs1" />
  <sodipodi:namedview
     id="namedview1"
     pagecolor="#ffffff"
     bordercolor="#000000"
     borderopacity="0.25"
     inkscape:showpageshadow="2"
     inkscape:pageopacity="0.0"
     inkscape:pagecheckerboard="0"
     inkscape:deskcolor="#d1d1d1"
     inkscape:zoom="2.7740715"
     inkscape:cx="118.59824"
     inkscape:cy="96.6089"
     inkscape:window-width="1536"
     inkscape:window-height="795"
     inkscape:window-x="0"
     inkscape:window-y="0"
     inkscape:window-maximized="1"
     inkscape:current-layer="g1"
     showgrid="false" />
  <path
     style="fill:#ffffff;stroke:#ccced2;stroke-width:0;fill-opacity:1"
     d="m 142.38998,28.117516 15.1402,22.34982 -2.16288,18.384529 0.36048,5.407215 11.17491,16.582124 8.29106,11.895876 0.72096,9.3725 -7.93058,9.73299 -3.60481,4.68625 -1.44192,9.73299 -3.24433,17.30308 -2.88385,19.46598 L 90.480723,162.21644 120.76112,106.70237 112.83054,80.747737 90.480723,65.607536 73.898599,55.514069 71.375232,53.711664 Z"
     id="path1" />
  <g
     inkscape:groupmode="layer"
     inkscape:label="Image"
     id="g1">
    <path
       style="font-variation-settings:'opsz' 32, 'wght' 800;fill:#4b67ae;stroke:none"
       d="m 93.162262,3.435144 c -17.053564,2.4419999 -32.841089,7.448169 -47.2,17.16667 -11.098829,7.512 -20.632104,17.43222 -27.558644,28.890745 -31.16456,51.555311 -11.6307907,121.908611 45.958644,145.237661 17.904254,7.25287 37.036838,8.71673 55.999998,5.85493 12.93579,-1.95218 25.96406,-7.63741 36.8,-14.82653 57.36377,-38.05809 58.83294,-123.752671 3.2,-164.139536 -10.13357,-7.35648 -21.51993,-12.2060601 -33.6,-15.2253001 C 115.95213,3.691954 104.30847,1.8390439 93.162262,3.435144 M 156.36226,135.09256 c 2.43313,6.69019 -1.48673,7.6348 -3.03518,13.6 -1.53375,5.90858 3.19926,12.69788 -1.48703,18.1247 -3.86239,4.47271 -10.60187,2.28033 -15.47779,1.24382 -12.5409,-2.66591 -25.04945,-5.57806 -37.599998,-8.16852 v -0.8 c 49.516698,-21.7469 31.527438,-100.947441 -20.8,-103.200001 4.862433,-3.67617 11.865662,-5.02152 17.6,-6.93334 10.697238,-3.56643 21.267138,-7.48649 31.999998,-10.941975 4.09254,-1.3176 12.49649,-6.50272 16.46482,-3.23889 11.54141,9.492415 4.97048,28.306665 6.99568,40.314205 2.00536,11.88988 23.79146,22.56448 20.12531,35.196911 -1.81388,6.25006 -9.80572,6.48507 -12.32902,12.01545 -2.27937,4.99574 4.24486,9.26814 -2.45679,12.78764"
       id="path4886"
       sodipodi:nodetypes="csssssssccssscccsscsssc" />
    <ellipse
       style="fill:none;stroke:#ccced2;stroke-width:4.44725;stroke-dasharray:none;stroke-opacity:1;font-variation-settings:'opsz' 32, 'wght' 800"
       id="path4893"
       cx="102.4"
       cy="102.4"
       rx="100.11073"
       ry="100.04846" />
    <text
       xml:space="preserve"
       style="font-style:normal;font-variant:normal;font-weight:normal;font-stretch:normal;font-size:60px;font-family:Sans;-inkscape-font-specification:'Sans, Normal';font-variant-ligatures:normal;font-variant-caps:normal;font-variant-numeric:normal;font-variant-east-asian:normal;text-align:start;writing-mode:lr-tb;direction:ltr;text-anchor:start;fill:#ffffff;fill-opacity:1;stroke:#ccced2;stroke-width:0;stroke-dasharray:none;stroke-opacity:1"
       x="46.703747"
       y="153.91289"
       id="text5"><tspan
         sodipodi:role="line"
         id="tspan5"
         x="46.703747"
         y="153.91289">ID</tspan></text>
    <text
       xml:space="preserve"
       style="font-style:normal;font-variant:normal;font-weight:normal;font-stretch:normal;font-size:60px;font-family:Sans;-inkscape-font-specification:'Sans, Normal';font-variant-ligatures:normal;font-variant-caps:normal;font-variant-numeric:normal;font-variant-east-asian:normal;text-align:start;writing-mode:lr-tb;direction:ltr;text-anchor:start;fill:#ffffff;fill-opacity:1;stroke:#ccced2;stroke-width:0;stroke-dasharray:none;stroke-opacity:1"
       x="23.413488"
       y="106.2233"
       id="text4"><tspan
         sodipodi:role="line"
         id="tspan4"
         x="23.413488"
         y="106.2233">Cie</tspan></text>
  </g>
</svg>
